<mxfile host="app.diagrams.net" modified="2022-02-27T23:03:59.028Z" agent="5.0 (Macintosh; Intel Mac OS X 10_15_7) AppleWebKit/537.36 (KHTML, like Gecko) Chrome/97.0.4692.99 Safari/537.36" etag="hKPjrZBkZqM7pqXuBWF8" version="16.4.3" type="github">
  <diagram id="eSw0buYtp1JICF1Rn_Bf" name="Page-1">
    <mxGraphModel dx="981" dy="734" grid="1" gridSize="10" guides="1" tooltips="1" connect="1" arrows="1" fold="1" page="1" pageScale="1" pageWidth="827" pageHeight="1169" math="0" shadow="0">
      <root>
        <mxCell id="0" />
        <mxCell id="1" parent="0" />
        <mxCell id="WwznPTJzhfnH4R8WpsrZ-2" value="" style="rounded=0;whiteSpace=wrap;html=1;" vertex="1" parent="1">
          <mxGeometry x="130" y="140" width="230" height="280" as="geometry" />
        </mxCell>
        <mxCell id="WwznPTJzhfnH4R8WpsrZ-3" value="hardware" style="rounded=1;whiteSpace=wrap;html=1;fillColor=#f5f5f5;fontColor=#333333;strokeColor=#666666;" vertex="1" parent="1">
          <mxGeometry x="170" y="380" width="150" height="30" as="geometry" />
        </mxCell>
        <mxCell id="WwznPTJzhfnH4R8WpsrZ-4" value="Host OS Kernel" style="rounded=1;whiteSpace=wrap;html=1;fillColor=#e1d5e7;strokeColor=#9673a6;" vertex="1" parent="1">
          <mxGeometry x="170" y="337" width="150" height="30" as="geometry" />
        </mxCell>
        <mxCell id="WwznPTJzhfnH4R8WpsrZ-5" value="QEMU" style="rounded=0;whiteSpace=wrap;html=1;strokeWidth=2;glass=0;fillColor=#fff2cc;strokeColor=#d6b656;" vertex="1" parent="1">
          <mxGeometry x="170" y="291" width="150" height="30" as="geometry" />
        </mxCell>
        <mxCell id="WwznPTJzhfnH4R8WpsrZ-7" value="Guest OS Kernel" style="rounded=0;whiteSpace=wrap;html=1;fillColor=#dae8fc;strokeColor=#6c8ebf;" vertex="1" parent="1">
          <mxGeometry x="170" y="250" width="60" height="40" as="geometry" />
        </mxCell>
        <mxCell id="WwznPTJzhfnH4R8WpsrZ-8" value="&lt;font color=&quot;#0000ff&quot;&gt;vacuumed env&lt;/font&gt;" style="rounded=0;whiteSpace=wrap;html=1;" vertex="1" parent="1">
          <mxGeometry x="170" y="210" width="60" height="40" as="geometry" />
        </mxCell>
        <mxCell id="WwznPTJzhfnH4R8WpsrZ-9" value="app" style="rounded=0;whiteSpace=wrap;html=1;fillColor=#d5e8d4;strokeColor=#82b366;" vertex="1" parent="1">
          <mxGeometry x="170" y="160" width="30" height="50" as="geometry" />
        </mxCell>
        <mxCell id="WwznPTJzhfnH4R8WpsrZ-10" value="app" style="rounded=0;whiteSpace=wrap;html=1;fillColor=#d5e8d4;strokeColor=#82b366;" vertex="1" parent="1">
          <mxGeometry x="200" y="160" width="30" height="50" as="geometry" />
        </mxCell>
        <mxCell id="WwznPTJzhfnH4R8WpsrZ-11" value="Guest OS Kernel" style="rounded=0;whiteSpace=wrap;html=1;fillColor=#dae8fc;strokeColor=#6c8ebf;" vertex="1" parent="1">
          <mxGeometry x="260" y="250" width="60" height="40" as="geometry" />
        </mxCell>
        <mxCell id="WwznPTJzhfnH4R8WpsrZ-12" value="&lt;font color=&quot;#0000ff&quot;&gt;vacuumed env&lt;/font&gt;" style="rounded=0;whiteSpace=wrap;html=1;" vertex="1" parent="1">
          <mxGeometry x="260" y="210" width="60" height="40" as="geometry" />
        </mxCell>
        <mxCell id="WwznPTJzhfnH4R8WpsrZ-14" value="app" style="rounded=0;whiteSpace=wrap;html=1;fillColor=#d5e8d4;strokeColor=#82b366;" vertex="1" parent="1">
          <mxGeometry x="300" y="160" width="20" height="50" as="geometry" />
        </mxCell>
        <mxCell id="WwznPTJzhfnH4R8WpsrZ-15" value="app" style="rounded=0;whiteSpace=wrap;html=1;fillColor=#d5e8d4;strokeColor=#82b366;" vertex="1" parent="1">
          <mxGeometry x="280" y="160" width="20" height="50" as="geometry" />
        </mxCell>
        <mxCell id="WwznPTJzhfnH4R8WpsrZ-16" value="app" style="rounded=0;whiteSpace=wrap;html=1;fillColor=#d5e8d4;strokeColor=#82b366;" vertex="1" parent="1">
          <mxGeometry x="260" y="160" width="20" height="50" as="geometry" />
        </mxCell>
        <mxCell id="WwznPTJzhfnH4R8WpsrZ-18" value="" style="endArrow=classic;html=1;rounded=0;exitX=0.5;exitY=1;exitDx=0;exitDy=0;" edge="1" parent="1" source="WwznPTJzhfnH4R8WpsrZ-5" target="WwznPTJzhfnH4R8WpsrZ-4">
          <mxGeometry width="50" height="50" relative="1" as="geometry">
            <mxPoint x="180" y="390" as="sourcePoint" />
            <mxPoint x="230" y="340" as="targetPoint" />
          </mxGeometry>
        </mxCell>
        <mxCell id="WwznPTJzhfnH4R8WpsrZ-19" value="" style="endArrow=classic;html=1;rounded=0;entryX=0.5;entryY=0;entryDx=0;entryDy=0;exitX=0.5;exitY=1;exitDx=0;exitDy=0;" edge="1" parent="1" source="WwznPTJzhfnH4R8WpsrZ-4" target="WwznPTJzhfnH4R8WpsrZ-3">
          <mxGeometry width="50" height="50" relative="1" as="geometry">
            <mxPoint x="180" y="390" as="sourcePoint" />
            <mxPoint x="230" y="340" as="targetPoint" />
          </mxGeometry>
        </mxCell>
        <mxCell id="WwznPTJzhfnH4R8WpsrZ-20" value="" style="rounded=0;whiteSpace=wrap;html=1;" vertex="1" parent="1">
          <mxGeometry x="150" y="443" width="290" height="267" as="geometry" />
        </mxCell>
        <mxCell id="WwznPTJzhfnH4R8WpsrZ-21" value="hardware" style="rounded=1;whiteSpace=wrap;html=1;fillColor=#f5f5f5;fontColor=#333333;strokeColor=#666666;" vertex="1" parent="1">
          <mxGeometry x="174" y="663" width="236" height="30" as="geometry" />
        </mxCell>
        <mxCell id="WwznPTJzhfnH4R8WpsrZ-22" value="Hypervisor&amp;nbsp;" style="rounded=1;whiteSpace=wrap;html=1;strokeWidth=2;fillColor=#e1d5e7;strokeColor=#9673a6;" vertex="1" parent="1">
          <mxGeometry x="174" y="621" width="236" height="30" as="geometry" />
        </mxCell>
        <mxCell id="WwznPTJzhfnH4R8WpsrZ-33" value="" style="endArrow=classic;html=1;rounded=0;exitX=0.5;exitY=1;exitDx=0;exitDy=0;" edge="1" parent="1" source="WwznPTJzhfnH4R8WpsrZ-39" target="WwznPTJzhfnH4R8WpsrZ-22">
          <mxGeometry width="50" height="50" relative="1" as="geometry">
            <mxPoint x="249" y="624" as="sourcePoint" />
            <mxPoint x="234" y="643" as="targetPoint" />
          </mxGeometry>
        </mxCell>
        <mxCell id="WwznPTJzhfnH4R8WpsrZ-34" value="" style="endArrow=classic;html=1;rounded=0;entryX=0.5;entryY=0;entryDx=0;entryDy=0;exitX=0.5;exitY=1;exitDx=0;exitDy=0;" edge="1" parent="1" source="WwznPTJzhfnH4R8WpsrZ-22" target="WwznPTJzhfnH4R8WpsrZ-21">
          <mxGeometry width="50" height="50" relative="1" as="geometry">
            <mxPoint x="184" y="693" as="sourcePoint" />
            <mxPoint x="234" y="643" as="targetPoint" />
          </mxGeometry>
        </mxCell>
        <mxCell id="WwznPTJzhfnH4R8WpsrZ-37" value="&lt;font color=&quot;#ff3333&quot;&gt;Dom 0&lt;br&gt;&lt;br&gt;&lt;br&gt;&lt;br&gt;&lt;br&gt;&lt;br&gt;&lt;/font&gt;" style="rounded=0;whiteSpace=wrap;html=1;glass=0;strokeWidth=2;fillColor=#dae8fc;strokeColor=#6c8ebf;" vertex="1" parent="1">
          <mxGeometry x="170" y="460" width="70" height="150" as="geometry" />
        </mxCell>
        <mxCell id="WwznPTJzhfnH4R8WpsrZ-38" value="&lt;font color=&quot;#00000d&quot;&gt;back end&lt;/font&gt;" style="rounded=0;whiteSpace=wrap;html=1;glass=0;strokeWidth=2;fillColor=#fff2cc;strokeColor=#d6b656;" vertex="1" parent="1">
          <mxGeometry x="175" y="521" width="60" height="40" as="geometry" />
        </mxCell>
        <mxCell id="WwznPTJzhfnH4R8WpsrZ-39" value="Device drivers" style="rounded=0;whiteSpace=wrap;html=1;glass=0;strokeWidth=2;fillColor=#fff2cc;strokeColor=#d6b656;" vertex="1" parent="1">
          <mxGeometry x="172" y="570" width="67" height="30" as="geometry" />
        </mxCell>
        <mxCell id="WwznPTJzhfnH4R8WpsrZ-40" value="&lt;font color=&quot;#000000&quot;&gt;Dom U&lt;br&gt;&lt;br&gt;&lt;br&gt;&lt;br&gt;OS&lt;br&gt;&lt;br&gt;&lt;br&gt;&lt;br&gt;&lt;br&gt;&lt;br&gt;&lt;/font&gt;" style="rounded=0;whiteSpace=wrap;html=1;glass=0;fontColor=#FF3333;strokeWidth=2;" vertex="1" parent="1">
          <mxGeometry x="250" y="461" width="80" height="149" as="geometry" />
        </mxCell>
        <mxCell id="WwznPTJzhfnH4R8WpsrZ-57" value="&lt;font color=&quot;#000000&quot;&gt;OS&lt;/font&gt;" style="rounded=1;whiteSpace=wrap;html=1;glass=0;strokeWidth=2;fillColor=#dae8fc;strokeColor=#6c8ebf;" vertex="1" parent="1">
          <mxGeometry x="260" y="500" width="60" height="50" as="geometry" />
        </mxCell>
        <mxCell id="WwznPTJzhfnH4R8WpsrZ-58" value="front end" style="rounded=0;whiteSpace=wrap;html=1;glass=0;strokeWidth=2;fillColor=#fff2cc;strokeColor=#d6b656;" vertex="1" parent="1">
          <mxGeometry x="256.5" y="568" width="67" height="30" as="geometry" />
        </mxCell>
        <mxCell id="WwznPTJzhfnH4R8WpsrZ-59" value="&lt;font color=&quot;#000000&quot;&gt;Dom U&lt;br&gt;&lt;br&gt;&lt;br&gt;&lt;br&gt;OS&lt;br&gt;&lt;br&gt;&lt;br&gt;&lt;br&gt;&lt;br&gt;&lt;br&gt;&lt;/font&gt;" style="rounded=0;whiteSpace=wrap;html=1;glass=0;fontColor=#FF3333;strokeWidth=2;" vertex="1" parent="1">
          <mxGeometry x="341" y="461" width="80" height="149" as="geometry" />
        </mxCell>
        <mxCell id="WwznPTJzhfnH4R8WpsrZ-60" value="&lt;font color=&quot;#000000&quot;&gt;OS&lt;/font&gt;" style="rounded=1;whiteSpace=wrap;html=1;glass=0;strokeWidth=2;fillColor=#dae8fc;strokeColor=#6c8ebf;" vertex="1" parent="1">
          <mxGeometry x="351" y="500" width="60" height="50" as="geometry" />
        </mxCell>
        <mxCell id="WwznPTJzhfnH4R8WpsrZ-61" value="front end" style="rounded=0;whiteSpace=wrap;html=1;glass=0;strokeWidth=2;fillColor=#fff2cc;strokeColor=#d6b656;" vertex="1" parent="1">
          <mxGeometry x="347.5" y="568" width="67" height="30" as="geometry" />
        </mxCell>
        <mxCell id="WwznPTJzhfnH4R8WpsrZ-62" value="" style="endArrow=classic;startArrow=classic;html=1;rounded=0;fontColor=#000000;exitX=1;exitY=0.75;exitDx=0;exitDy=0;entryX=0.5;entryY=0;entryDx=0;entryDy=0;" edge="1" parent="1" source="WwznPTJzhfnH4R8WpsrZ-38" target="WwznPTJzhfnH4R8WpsrZ-58">
          <mxGeometry width="50" height="50" relative="1" as="geometry">
            <mxPoint x="270" y="380" as="sourcePoint" />
            <mxPoint x="320" y="330" as="targetPoint" />
          </mxGeometry>
        </mxCell>
        <mxCell id="WwznPTJzhfnH4R8WpsrZ-63" value="" style="endArrow=classic;startArrow=classic;html=1;rounded=0;fontColor=#000000;exitX=1;exitY=0.5;exitDx=0;exitDy=0;" edge="1" parent="1" source="WwznPTJzhfnH4R8WpsrZ-38" target="WwznPTJzhfnH4R8WpsrZ-61">
          <mxGeometry width="50" height="50" relative="1" as="geometry">
            <mxPoint x="250" y="550" as="sourcePoint" />
            <mxPoint x="320" y="330" as="targetPoint" />
          </mxGeometry>
        </mxCell>
        <mxCell id="WwznPTJzhfnH4R8WpsrZ-65" value="" style="rounded=0;whiteSpace=wrap;html=1;" vertex="1" parent="1">
          <mxGeometry x="150" y="753" width="250" height="287" as="geometry" />
        </mxCell>
        <mxCell id="WwznPTJzhfnH4R8WpsrZ-66" value="hardware" style="rounded=1;whiteSpace=wrap;html=1;fillColor=#f5f5f5;fontColor=#333333;strokeColor=#666666;" vertex="1" parent="1">
          <mxGeometry x="180" y="993" width="190" height="30" as="geometry" />
        </mxCell>
        <mxCell id="WwznPTJzhfnH4R8WpsrZ-67" value="Host OS Kernel&amp;nbsp; &amp;nbsp; &amp;nbsp;&amp;nbsp;" style="rounded=1;whiteSpace=wrap;html=1;fillColor=#e1d5e7;strokeColor=#9673a6;" vertex="1" parent="1">
          <mxGeometry x="180" y="950" width="190" height="30" as="geometry" />
        </mxCell>
        <mxCell id="WwznPTJzhfnH4R8WpsrZ-68" value="QEMU" style="rounded=0;whiteSpace=wrap;html=1;strokeWidth=2;glass=0;fillColor=#fff2cc;strokeColor=#d6b656;" vertex="1" parent="1">
          <mxGeometry x="180" y="904" width="190" height="30" as="geometry" />
        </mxCell>
        <mxCell id="WwznPTJzhfnH4R8WpsrZ-69" value="Guest OS Kernel" style="rounded=0;whiteSpace=wrap;html=1;fillColor=#dae8fc;strokeColor=#6c8ebf;" vertex="1" parent="1">
          <mxGeometry x="180" y="863" width="60" height="40" as="geometry" />
        </mxCell>
        <mxCell id="WwznPTJzhfnH4R8WpsrZ-70" value="&lt;font color=&quot;#0000ff&quot;&gt;vacuumed env&lt;/font&gt;" style="rounded=0;whiteSpace=wrap;html=1;" vertex="1" parent="1">
          <mxGeometry x="180" y="823" width="60" height="40" as="geometry" />
        </mxCell>
        <mxCell id="WwznPTJzhfnH4R8WpsrZ-71" value="app" style="rounded=0;whiteSpace=wrap;html=1;fillColor=#d5e8d4;strokeColor=#82b366;" vertex="1" parent="1">
          <mxGeometry x="180" y="773" width="30" height="50" as="geometry" />
        </mxCell>
        <mxCell id="WwznPTJzhfnH4R8WpsrZ-72" value="app" style="rounded=0;whiteSpace=wrap;html=1;fillColor=#d5e8d4;strokeColor=#82b366;" vertex="1" parent="1">
          <mxGeometry x="210" y="773" width="30" height="50" as="geometry" />
        </mxCell>
        <mxCell id="WwznPTJzhfnH4R8WpsrZ-73" value="Guest OS Kernel" style="rounded=0;whiteSpace=wrap;html=1;fillColor=#dae8fc;strokeColor=#6c8ebf;" vertex="1" parent="1">
          <mxGeometry x="270" y="863" width="100" height="40" as="geometry" />
        </mxCell>
        <mxCell id="WwznPTJzhfnH4R8WpsrZ-74" value="&lt;font color=&quot;#0000ff&quot;&gt;vacuumed env&lt;/font&gt;" style="rounded=0;whiteSpace=wrap;html=1;" vertex="1" parent="1">
          <mxGeometry x="270" y="823" width="100" height="40" as="geometry" />
        </mxCell>
        <mxCell id="WwznPTJzhfnH4R8WpsrZ-77" value="app" style="rounded=0;whiteSpace=wrap;html=1;fillColor=#d5e8d4;strokeColor=#82b366;" vertex="1" parent="1">
          <mxGeometry x="270" y="773" width="30" height="50" as="geometry" />
        </mxCell>
        <mxCell id="WwznPTJzhfnH4R8WpsrZ-78" value="" style="endArrow=classic;html=1;exitX=0.5;exitY=1;exitDx=0;exitDy=0;rounded=1;" edge="1" parent="1" source="WwznPTJzhfnH4R8WpsrZ-68" target="WwznPTJzhfnH4R8WpsrZ-67">
          <mxGeometry width="50" height="50" relative="1" as="geometry">
            <mxPoint x="190" y="1003" as="sourcePoint" />
            <mxPoint x="240" y="953" as="targetPoint" />
            <Array as="points">
              <mxPoint x="340" y="950" />
            </Array>
          </mxGeometry>
        </mxCell>
        <mxCell id="WwznPTJzhfnH4R8WpsrZ-79" value="" style="endArrow=classic;html=1;rounded=0;entryX=0.5;entryY=0;entryDx=0;entryDy=0;exitX=0.5;exitY=1;exitDx=0;exitDy=0;" edge="1" parent="1" source="WwznPTJzhfnH4R8WpsrZ-67" target="WwznPTJzhfnH4R8WpsrZ-66">
          <mxGeometry width="50" height="50" relative="1" as="geometry">
            <mxPoint x="190" y="1003" as="sourcePoint" />
            <mxPoint x="240" y="953" as="targetPoint" />
          </mxGeometry>
        </mxCell>
        <mxCell id="WwznPTJzhfnH4R8WpsrZ-82" value="kvm" style="rounded=0;whiteSpace=wrap;html=1;glass=0;strokeWidth=2;fillColor=#f8cecc;strokeColor=#b85450;" vertex="1" parent="1">
          <mxGeometry x="320" y="952" width="45" height="18" as="geometry" />
        </mxCell>
        <mxCell id="WwznPTJzhfnH4R8WpsrZ-83" value="app" style="rounded=0;whiteSpace=wrap;html=1;fillColor=#d5e8d4;strokeColor=#82b366;" vertex="1" parent="1">
          <mxGeometry x="300" y="773" width="30" height="50" as="geometry" />
        </mxCell>
        <mxCell id="WwznPTJzhfnH4R8WpsrZ-84" value="app" style="rounded=0;whiteSpace=wrap;html=1;fillColor=#d5e8d4;strokeColor=#82b366;" vertex="1" parent="1">
          <mxGeometry x="341" y="773" width="30" height="50" as="geometry" />
        </mxCell>
      </root>
    </mxGraphModel>
  </diagram>
</mxfile>
